<svg width="50" height="50" viewBox="0 0 50 50" fill="none" xmlns="http://www.w3.org/2000/svg">
<g clip-path="url(#clip0_398_34666)">
<path d="M49.7262 49.7262H24.6871C11.2285 49.7262 0.273926 38.7716 0.273926 25.313V24.8436C0.273926 11.2285 11.2285 0.273926 24.6871 0.273926H25.313C38.7716 0.273926 49.7262 11.2285 49.7262 24.6871V49.7262Z" fill="#BF00EF"/>
<path d="M32.6682 31.7294L35.6416 28.756L37.05 27.3476C40.0234 24.3742 40.0234 19.5228 37.05 16.7059C34.0766 13.7325 29.2253 13.7325 26.4084 16.7059L25 18.1144L23.5915 16.7059C20.6181 13.7325 15.9233 13.576 12.9499 16.3929C9.81999 19.3663 9.81998 24.2177 12.7934 27.1911L14.2018 28.5995L24.8435 39.2411C25 39.3976 31.2597 33.1379 32.6682 31.7294Z" fill="white"/>
</g>
<defs>
<clipPath id="clip0_398_34666">
<rect width="50" height="50" fill="white"/>
</clipPath>
</defs>
</svg>
