<svg width="294" height="70" viewBox="0 0 294 70" fill="none" xmlns="http://www.w3.org/2000/svg">
<g clip-path="url(#clip0_1887_19797)">
<path d="M72.5002 28.8848C72.3712 29.0149 72.3712 29.2751 72.2422 29.4052C72.3712 29.2751 72.3712 29.145 72.5002 28.8848Z" fill="#8740CC"/>
<path d="M73.0154 27.4531C73.0154 27.5832 73.0154 27.5832 72.8872 27.7133C73.0154 27.7133 73.0154 27.5832 73.0154 27.4531Z" fill="#8740CC"/>
<path d="M73.016 27.7129C72.887 28.1032 72.758 28.4936 72.5 28.8839C72.629 28.4936 72.887 28.1032 73.016 27.7129Z" fill="#BF00EF"/>
<path d="M73.532 26.1523C73.403 26.6728 73.274 27.0631 73.145 27.5836C73.274 27.0631 73.403 26.5427 73.532 26.1523Z" fill="#BF00EF"/>
<path d="M38.9592 37.2108C34.4441 33.0473 31.864 27.0621 31.864 20.8168C31.864 17.564 32.509 14.4413 33.799 11.5789C34.057 10.9283 34.9601 9.6272 35.7341 8.4562C34.057 6.2443 31.993 4.42274 29.5419 3.12163C26.9618 1.95062 24.8978 1.56029 23.9947 1.43018C22.4467 1.16995 19.4796 0.649507 15.7385 1.16995C6.83721 3.12163 0 11.1885 0 20.9469C0 25.761 1.67705 30.0547 4.38613 33.5677C4.90215 34.0882 5.41817 34.7387 5.93418 35.2592C6.32119 35.6495 6.70821 36.0398 7.09522 36.4302C15.2225 44.8874 19.4796 49.1811 22.0597 51.5231C25.8008 54.906 31.09 59.8503 37.0241 66.2257V66.3558L37.1531 66.2257L37.2821 66.3558V66.0956C43.3453 59.7201 48.5055 54.7759 52.2466 51.393C52.5046 51.1328 52.7626 50.8726 53.1496 50.6123L39.2172 37.4711L38.9592 37.2108Z" fill="white"/>
<path d="M58.31 1.17038C57.1489 1.04027 55.9879 0.910156 55.0849 0.910156C52.8918 0.910156 51.2148 1.17038 50.1827 1.4306C49.2797 1.56071 47.2156 2.08116 44.6355 3.12205C42.4425 4.29306 40.5074 5.85439 38.9594 7.67596C38.3144 8.45663 36.1213 11.5793 35.7343 12.36C34.5732 14.9622 33.9282 17.8247 33.9282 20.8172C33.9282 26.6722 36.3793 32.0068 40.3784 35.6499C40.5074 35.78 40.5074 35.78 40.6364 35.9102L54.5689 49.0514C57.1489 46.4492 61.0191 42.5458 67.0822 36.3005C67.2112 36.1704 67.2112 36.1704 67.3402 36.0403C67.5983 35.78 67.8563 35.5198 68.1143 35.1295C68.6303 34.609 69.0173 34.2187 69.5333 33.6983C70.0493 33.0477 70.5653 32.267 71.0814 31.4864C71.0814 31.3563 71.2104 31.3563 71.2104 31.2261C71.3394 30.9659 71.5974 30.5756 71.7264 30.3154C71.8554 30.0551 71.9844 29.7949 72.1134 29.5347C72.2424 29.4046 72.2424 29.1444 72.3714 29.0142C72.5004 28.6239 72.7584 28.2336 72.8874 27.8432C72.8874 27.7131 72.8874 27.7131 73.0164 27.583C73.1454 27.0626 73.2744 26.6722 73.4034 26.1518C73.7904 24.4603 74.0485 22.7689 74.0485 20.9473C74.1775 11.189 67.3402 3.12205 58.31 1.17038ZM54.5689 28.4938C50.4407 28.4938 46.9576 25.1109 46.9576 20.8172C46.9576 16.5235 50.3117 13.1406 54.5689 13.1406C58.697 13.1406 62.1801 16.5235 62.1801 20.8172C62.1801 25.1109 58.697 28.4938 54.5689 28.4938Z" fill="#BF00EF"/>
<path d="M106.686 10.6699C96.6237 10.6699 89.2705 17.6959 89.2705 27.3242C89.2705 36.9525 96.6237 43.9785 106.686 43.9785C116.748 43.9785 124.102 36.9525 124.102 27.3242C124.102 17.6959 116.748 10.6699 106.686 10.6699ZM106.686 35.1309C102.3 35.1309 99.2038 31.8781 99.2038 27.3242C99.2038 22.7703 102.3 19.5175 106.686 19.5175C111.072 19.5175 114.168 22.7703 114.168 27.3242C114.168 31.8781 111.072 35.1309 106.686 35.1309Z" fill="white"/>
<path d="M160.351 11.71H149.257L140.743 25.8922V0H130.81V42.9368H140.743V27.7138L149.644 42.9368H161.384L150.676 26.5428L160.351 11.71Z" fill="white"/>
<path d="M179.96 10.6699C169.898 10.6699 162.545 17.6959 162.545 27.3242C162.545 36.9525 169.898 43.9785 179.96 43.9785C190.023 43.9785 197.376 36.9525 197.376 27.3242C197.376 17.6959 190.023 10.6699 179.96 10.6699ZM179.96 35.1309C175.574 35.1309 172.478 31.8781 172.478 27.3242C172.478 22.7703 175.574 19.5175 179.96 19.5175C184.347 19.5175 187.443 22.7703 187.443 27.3242C187.443 31.8781 184.347 35.1309 179.96 35.1309Z" fill="white"/>
<path d="M219.177 10.6699C209.115 10.6699 201.762 17.6959 201.762 27.3242C201.762 36.9525 209.115 43.9785 219.177 43.9785C229.24 43.9785 236.593 36.9525 236.593 27.3242C236.593 17.6959 229.24 10.6699 219.177 10.6699ZM219.177 35.1309C214.791 35.1309 211.695 31.8781 211.695 27.3242C211.695 22.7703 214.791 19.5175 219.177 19.5175C223.563 19.5175 226.659 22.7703 226.659 27.3242C226.659 31.8781 223.563 35.1309 219.177 35.1309Z" fill="white"/>
<path d="M252.847 0H242.914V42.9368H252.847V0Z" fill="white"/>
<path d="M285.357 14.5733L284.841 14.0528C282.261 11.8409 278.907 10.6699 275.423 10.6699C265.877 10.6699 259.169 17.4357 259.169 27.3242C259.169 36.9525 266.006 44.1086 275.423 44.1086C278.907 44.1086 282.132 42.9376 284.712 40.8558L285.357 40.3354L286.389 42.9376H294V11.7108H286.647L285.357 14.5733ZM276.843 35.261C272.456 35.261 269.102 31.8781 269.102 27.3242C269.102 22.7703 272.456 19.3874 276.843 19.3874C281.229 19.3874 284.583 22.7703 284.583 27.3242C284.583 31.8781 281.229 35.261 276.843 35.261Z" fill="white"/>
<path d="M111.072 62.8457C111.072 60.3735 112.878 58.4219 115.329 58.4219C117.135 58.4219 118.684 59.4628 119.2 61.0241H118.684C118.038 59.723 116.877 58.8122 115.329 58.8122C113.136 58.8122 111.588 60.5037 111.588 62.7156C111.588 64.9275 113.265 66.6189 115.329 66.6189C116.877 66.6189 118.167 65.8382 118.684 64.407H119.2C118.554 66.0985 117.135 67.1393 115.329 67.1393C112.878 67.1393 111.072 65.3178 111.072 62.8457Z" fill="white"/>
<path d="M122.554 55.6895H123.07V67.1393H122.554V55.6895Z" fill="white"/>
<path d="M126.553 62.8457C126.553 60.3735 128.359 58.4219 130.939 58.4219C133.39 58.4219 135.325 60.2434 135.325 62.8457C135.325 65.4479 133.519 67.2695 130.939 67.2695C128.359 67.1393 126.553 65.3178 126.553 62.8457ZM134.68 62.8457C134.68 60.6338 133.003 58.9423 130.81 58.9423C128.617 58.9423 126.94 60.6338 126.94 62.8457C126.94 65.0576 128.617 66.749 130.81 66.749C133.132 66.749 134.68 65.0576 134.68 62.8457Z" fill="white"/>
<path d="M137.905 64.7973H138.421C138.55 66.0985 139.582 66.749 141.13 66.749C142.678 66.749 143.839 65.9683 143.839 64.7973C143.839 63.3661 142.42 63.1059 141.13 62.8457C139.711 62.5854 138.163 62.3252 138.163 60.6338C138.163 59.3327 139.324 58.4219 141.13 58.4219C142.936 58.4219 144.097 59.3327 144.097 60.7639H143.581C143.452 59.5929 142.549 58.8122 141.001 58.8122C139.453 58.8122 138.55 59.4628 138.55 60.6338C138.55 61.9349 139.711 62.065 141.13 62.3252C142.549 62.5854 144.226 62.8457 144.226 64.7973C144.226 66.2286 142.936 67.2695 141.13 67.2695C139.195 67.1393 138.034 66.2286 137.905 64.7973Z" fill="white"/>
<path d="M155.192 62.9758H147.451C147.58 65.1877 149.129 66.749 151.193 66.749C152.612 66.749 153.902 65.9683 154.547 64.6672H155.063C154.289 66.3587 152.87 67.2695 151.193 67.2695C148.871 67.2695 147.064 65.3178 147.064 62.8457C147.064 60.3735 148.871 58.4219 151.193 58.4219C153.644 58.4219 155.321 60.3735 155.321 62.7156C155.192 62.8457 155.192 62.8457 155.192 62.9758ZM147.451 62.4553H154.805C154.676 60.3735 153.128 58.9423 151.193 58.9423C149.129 58.9423 147.58 60.3735 147.451 62.4553Z" fill="white"/>
<path d="M167.963 66.6179V67.1383H166.931C165.383 67.1383 164.48 66.2276 164.48 64.5361V59.0714H162.545V58.6811H164.48V56.209H164.996V58.6811H168.092V59.0714H164.996V64.406C164.996 65.7071 165.77 66.4878 167.06 66.4878H167.963V66.6179Z" fill="white"/>
<path d="M170.027 62.8457C170.027 60.3735 171.833 58.4219 174.413 58.4219C176.864 58.4219 178.799 60.2434 178.799 62.8457C178.799 65.4479 176.993 67.2695 174.413 67.2695C171.833 67.1393 170.027 65.3178 170.027 62.8457ZM178.154 62.8457C178.154 60.6338 176.477 58.9423 174.284 58.9423C172.091 58.9423 170.414 60.6338 170.414 62.8457C170.414 65.0576 172.091 66.749 174.284 66.749C176.477 66.749 178.154 65.0576 178.154 62.8457Z" fill="white"/>
<path d="M194.151 58.552L189.893 67.6598C189.119 69.3512 188.345 69.8717 187.055 69.8717H186.41V69.3512H187.055C188.216 69.3512 188.732 68.9609 189.506 67.3996L190.022 66.3587L186.152 58.4219H186.668L190.28 65.8382L193.635 58.4219H194.151V58.552Z" fill="white"/>
<path d="M196.215 62.8457C196.215 60.3735 198.021 58.4219 200.601 58.4219C203.052 58.4219 204.987 60.2434 204.987 62.8457C204.987 65.4479 203.181 67.2695 200.601 67.2695C198.15 67.1393 196.215 65.3178 196.215 62.8457ZM204.471 62.8457C204.471 60.6338 202.794 58.9423 200.601 58.9423C198.408 58.9423 196.731 60.6338 196.731 62.8457C196.731 65.0576 198.408 66.749 200.601 66.749C202.794 66.749 204.471 65.0576 204.471 62.8457Z" fill="white"/>
<path d="M208.341 63.495V58.5508H208.857V63.3649C208.857 65.4467 210.018 66.6177 211.824 66.6177C213.63 66.6177 214.792 65.3166 214.792 63.3649V58.5508H215.308V63.495C215.308 65.7069 213.888 67.1381 211.824 67.1381C209.631 67.1381 208.341 65.7069 208.341 63.495Z" fill="white"/>
<path d="M223.564 58.5508V59.0712H222.79C220.984 59.0712 219.823 60.3723 219.823 62.324V67.008H219.307V58.5508H219.694L219.823 60.5025C220.339 59.3315 221.371 58.5508 222.79 58.5508H223.564Z" fill="white"/>
<path d="M238.528 62.0642V67.0084H238.012V62.0642C238.012 60.1125 236.98 58.8114 235.174 58.8114C233.497 58.8114 231.949 60.2426 231.949 62.0642V67.0084H231.433V55.5586H231.949V60.5028C232.465 59.3318 233.755 58.421 235.174 58.421C237.238 58.421 238.528 59.8523 238.528 62.0642Z" fill="white"/>
<path d="M250.138 62.9758H242.398C242.527 65.1877 244.075 66.749 246.139 66.749C247.558 66.749 248.848 65.9683 249.493 64.6672H250.009C249.235 66.3587 247.816 67.2695 246.139 67.2695C243.817 67.2695 242.011 65.3178 242.011 62.8457C242.011 60.3735 243.817 58.4219 246.139 58.4219C248.59 58.4219 250.267 60.3735 250.267 62.7156C250.138 62.8457 250.138 62.8457 250.138 62.9758ZM242.398 62.4553H249.751C249.622 60.3735 248.074 58.9423 246.139 58.9423C244.075 58.9423 242.527 60.3735 242.398 62.4553Z" fill="white"/>
<path d="M261.362 58.5512V67.0085H260.975V64.7966C260.33 66.2278 258.911 67.1386 257.105 67.1386C254.654 67.1386 252.848 65.1869 252.848 62.7148C252.848 60.2427 254.654 58.291 257.105 58.291C258.911 58.291 260.201 59.2018 260.975 60.633V58.4211L261.362 58.5512ZM260.846 62.8449C260.846 60.633 259.298 58.9416 257.105 58.9416C254.912 58.9416 253.364 60.633 253.364 62.8449C253.364 65.0568 255.041 66.7483 257.105 66.7483C259.298 66.7483 260.846 65.0568 260.846 62.8449Z" fill="white"/>
<path d="M269.747 58.5508V59.0712H268.973C267.167 59.0712 266.006 60.3723 266.006 62.324V67.008H265.49V58.5508H265.877L266.006 60.5025C266.522 59.3315 267.554 58.5508 268.973 58.5508H269.747Z" fill="white"/>
<path d="M276.842 66.6179V67.1383H275.81C274.262 67.1383 273.359 66.2276 273.359 64.5361V59.0714H271.424V58.6811H273.359V56.209H273.875V58.6811H276.971V59.0714H273.875V64.406C273.875 65.7071 274.649 66.4878 275.939 66.4878H276.842V66.6179Z" fill="white"/>
</g>
<defs>
<clipPath id="clip0_1887_19797">
<rect width="294" height="70" fill="white"/>
</clipPath>
</defs>
</svg>
