<svg width="85" height="74" viewBox="0 0 85 74" fill="none" xmlns="http://www.w3.org/2000/svg">
<path d="M44.2598 40.9964C39.1303 36.2975 36.1992 29.5428 36.1992 22.4945C36.1992 18.8235 36.932 15.2993 38.3975 12.0688C38.6907 11.3346 39.7165 9.86624 40.5959 8.54468C38.6907 6.0484 36.3458 3.99264 33.5612 2.52423C30.6301 1.20267 28.2852 0.762151 27.2593 0.615311C25.5007 0.321631 22.1299 -0.26573 17.8798 0.321631C7.76744 2.52423 0 11.6283 0 22.6413C0 28.0744 1.90522 32.9201 4.98289 36.8848C5.56911 37.4722 6.15533 38.2064 6.74155 38.7938C7.18122 39.2343 7.62089 39.6748 8.06055 40.1153C17.2935 49.6599 22.1299 54.5056 25.061 57.1488C29.3111 60.9666 35.3199 66.5465 42.0614 73.7417V73.8885L42.208 73.7417L42.3545 73.8885V73.5949C49.2426 66.3997 55.1049 60.8198 59.355 57.0019C59.6481 56.7083 59.9412 56.4146 60.3809 56.1209L44.5529 41.29L44.2598 40.9964Z" fill="#8740CC"/>
<path d="M66.2429 0.321024C64.9239 0.174184 63.6049 0.0273438 62.5791 0.0273438C60.0876 0.0273438 58.1824 0.321024 57.0099 0.614704C55.9841 0.761545 53.6392 1.34891 50.7081 2.52363C48.2166 3.84519 46.0183 5.60727 44.2596 7.66303C43.5268 8.54407 41.0354 12.0682 40.5957 12.9493C39.2767 15.8861 38.5439 19.1166 38.5439 22.4939C38.5439 29.1017 41.3285 35.1221 45.8717 39.2337C46.0183 39.3805 46.0183 39.3805 46.1648 39.5273L61.9928 54.3582C64.9239 51.4214 69.3206 47.0162 76.2087 39.9679C76.3553 39.821 76.3553 39.821 76.5018 39.6742C76.7949 39.3805 77.088 39.0868 77.3812 38.6463C77.9674 38.0589 78.407 37.6184 78.9933 37.0311C79.5795 36.2969 80.1657 35.4158 80.7519 34.5348C80.7519 34.3879 80.8985 34.3879 80.8985 34.2411C81.045 33.9474 81.3382 33.5069 81.4847 33.2132C81.6313 32.9195 81.7778 32.6259 81.9244 32.3322C82.0709 32.1853 82.0709 31.8917 82.2175 31.7448C82.364 31.3043 82.6572 30.8638 82.8037 30.4233C82.8037 30.2764 82.8037 30.2764 82.9503 30.1296C83.0968 29.5422 83.2434 29.1017 83.3899 28.5143C83.8296 26.6054 84.1227 24.6965 84.1227 22.6407C84.2693 11.6277 76.5018 2.52363 66.2429 0.321024ZM61.9928 31.1575C57.3031 31.1575 53.3461 27.3396 53.3461 22.4939C53.3461 17.6482 57.1565 13.8303 61.9928 13.8303C66.6826 13.8303 70.6396 17.6482 70.6396 22.4939C70.6396 27.3396 66.6826 31.1575 61.9928 31.1575Z" fill="#BF00EF"/>
</svg>
