<svg width="508" height="120" viewBox="0 0 508 120" fill="none" xmlns="http://www.w3.org/2000/svg">
<g clip-path="url(#clip0_1887_19741)">
<path d="M125.11 49.5156C124.888 49.7387 124.888 50.1848 124.665 50.4078C124.888 50.1848 124.888 49.9617 125.11 49.5156Z" fill="#8740CC"/>
<path d="M125.999 47.0625C125.999 47.2855 125.999 47.2855 125.778 47.5086C125.999 47.5086 125.999 47.2855 125.999 47.0625Z" fill="#8740CC"/>
<path d="M126.001 47.5078C125.778 48.177 125.555 48.8461 125.11 49.5153C125.333 48.8461 125.778 48.177 126.001 47.5078Z" fill="#BF00EF"/>
<path d="M126.891 44.832C126.668 45.7242 126.446 46.3934 126.223 47.2856C126.446 46.3934 126.668 45.5012 126.891 44.832Z" fill="#BF00EF"/>
<path d="M67.23 63.7911C59.4385 56.6536 54.9861 46.3934 54.9861 35.687C54.9861 30.1108 56.0992 24.7577 58.3254 19.8506C58.7706 18.7354 60.3289 16.5049 61.6646 14.4975C58.7706 10.7056 55.2088 7.58296 50.9791 5.35247C46.5267 3.34504 42.9649 2.67589 41.4066 2.45285C38.7352 2.00675 33.615 1.11456 27.1591 2.00675C11.7986 5.35247 0 19.1815 0 35.9101C0 44.1629 2.89401 51.5235 7.56894 57.5458C8.45941 58.438 9.34987 59.5532 10.2403 60.4454C10.9082 61.1146 11.576 61.7837 12.2439 62.4528C26.2687 76.951 33.615 84.3116 38.0673 88.3265C44.5232 94.1257 53.6505 102.602 63.8908 113.531V113.754L64.1134 113.531L64.336 113.754V113.308C74.799 102.379 83.7036 93.9027 90.1595 88.1034C90.6047 87.6573 91.0499 87.2112 91.7178 86.7651L67.6753 64.2372L67.23 63.7911Z" fill="#8740CC"/>
<path d="M100.623 2.00664C98.619 1.7836 96.6154 1.56055 95.0571 1.56055C91.2726 1.56055 88.3786 2.00664 86.5977 2.45274C85.0394 2.67579 81.4775 3.56798 77.0252 5.35237C73.2407 7.3598 69.9015 10.0364 67.2301 13.1591C66.117 14.4974 62.3326 19.8505 61.6647 21.1888C59.6612 25.6498 58.5481 30.5568 58.5481 35.6869C58.5481 45.7241 62.7778 54.8691 69.6789 61.1144C69.9015 61.3375 69.9015 61.3375 70.1241 61.5605L94.1667 84.0884C98.619 79.6275 105.297 72.936 115.76 62.2297C115.983 62.0066 115.983 62.0066 116.206 61.7836C116.651 61.3375 117.096 60.8914 117.541 60.2223C118.432 59.3301 119.1 58.6609 119.99 57.7687C120.881 56.6535 121.771 55.3152 122.661 53.9769C122.661 53.7539 122.884 53.7539 122.884 53.5308C123.107 53.0847 123.552 52.4156 123.775 51.9695C123.997 51.5234 124.22 51.0773 124.442 50.6312C124.665 50.4081 124.665 49.962 124.888 49.739C125.11 49.0698 125.556 48.4007 125.778 47.7315C125.778 47.5085 125.778 47.5085 126.001 47.2855C126.223 46.3933 126.446 45.7241 126.669 44.8319C127.336 41.9323 127.782 39.0327 127.782 35.91C128.004 19.1814 116.206 5.35237 100.623 2.00664ZM94.1667 48.8468C87.0429 48.8468 81.0323 43.0475 81.0323 35.6869C81.0323 28.3263 86.8203 22.5271 94.1667 22.5271C101.29 22.5271 107.301 28.3263 107.301 35.6869C107.301 43.0475 101.29 48.8468 94.1667 48.8468Z" fill="#BF00EF"/>
<path d="M184.103 18.2891C166.739 18.2891 154.05 30.3337 154.05 46.8392C154.05 63.3448 166.739 75.3894 184.103 75.3894C201.467 75.3894 214.157 63.3448 214.157 46.8392C214.157 30.3337 201.467 18.2891 184.103 18.2891ZM184.103 60.2221C176.535 60.2221 171.192 54.6459 171.192 46.8392C171.192 39.0326 176.535 33.4563 184.103 33.4563C191.672 33.4563 197.015 39.0326 197.015 46.8392C197.015 54.6459 191.672 60.2221 184.103 60.2221Z" fill="black"/>
<path d="M276.712 20.0744H257.567L242.874 44.3866V0H225.733V73.6059H242.874V47.5093L258.235 73.6059H278.493L260.016 45.5019L276.712 20.0744Z" fill="black"/>
<path d="M310.549 18.2891C293.185 18.2891 280.496 30.3337 280.496 46.8392C280.496 63.3448 293.185 75.3894 310.549 75.3894C327.913 75.3894 340.602 63.3448 340.602 46.8392C340.602 30.3337 327.913 18.2891 310.549 18.2891ZM310.549 60.2221C302.98 60.2221 297.638 54.6459 297.638 46.8392C297.638 39.0326 302.98 33.4563 310.549 33.4563C318.118 33.4563 323.461 39.0326 323.461 46.8392C323.461 54.6459 318.118 60.2221 310.549 60.2221Z" fill="black"/>
<path d="M378.225 18.2891C360.86 18.2891 348.171 30.3337 348.171 46.8392C348.171 63.3448 360.86 75.3894 378.225 75.3894C395.589 75.3894 408.278 63.3448 408.278 46.8392C408.278 30.3337 395.589 18.2891 378.225 18.2891ZM378.225 60.2221C370.656 60.2221 365.313 54.6459 365.313 46.8392C365.313 39.0326 370.656 33.4563 378.225 33.4563C385.793 33.4563 391.136 39.0326 391.136 46.8392C391.136 54.6459 385.793 60.2221 378.225 60.2221Z" fill="black"/>
<path d="M436.327 0H419.186V73.6059H436.327V0Z" fill="black"/>
<path d="M492.427 24.9805L491.536 24.0883C487.084 20.2965 481.296 18.2891 475.285 18.2891C458.812 18.2891 447.236 29.8876 447.236 46.8392C447.236 63.3448 459.034 75.6125 475.285 75.6125C481.296 75.6125 486.861 73.605 491.314 70.0363L492.427 69.1441L494.208 73.605H507.342V20.0734H494.653L492.427 24.9805ZM477.734 60.4452C470.165 60.4452 464.377 54.6459 464.377 46.8392C464.377 39.0326 470.165 33.2333 477.734 33.2333C485.303 33.2333 491.091 39.0326 491.091 46.8392C491.091 54.6459 485.303 60.4452 477.734 60.4452Z" fill="black"/>
<path d="M191.672 107.732C191.672 103.494 194.789 100.148 199.019 100.148C202.135 100.148 204.807 101.933 205.697 104.609H204.807C203.694 102.379 201.69 100.818 199.019 100.818C195.234 100.818 192.563 103.717 192.563 107.509C192.563 111.301 195.457 114.2 199.019 114.2C201.69 114.2 203.916 112.862 204.807 110.409H205.697C204.584 113.308 202.135 115.093 199.019 115.093C194.789 115.093 191.672 111.97 191.672 107.732Z" fill="black"/>
<path d="M211.485 95.4648H212.376V115.093H211.485V95.4648Z" fill="black"/>
<path d="M218.386 107.732C218.386 103.494 221.503 100.148 225.955 100.148C230.185 100.148 233.524 103.271 233.524 107.732C233.524 112.193 230.407 115.316 225.955 115.316C221.503 115.093 218.386 111.97 218.386 107.732ZM232.411 107.732C232.411 103.94 229.517 101.041 225.733 101.041C221.948 101.041 219.054 103.94 219.054 107.732C219.054 111.524 221.948 114.424 225.733 114.424C229.74 114.424 232.411 111.524 232.411 107.732Z" fill="black"/>
<path d="M237.977 111.078H238.867C239.09 113.308 240.871 114.424 243.542 114.424C246.213 114.424 248.217 113.085 248.217 111.078C248.217 108.624 245.768 108.178 243.542 107.732C241.093 107.286 238.422 106.84 238.422 103.94C238.422 101.71 240.425 100.148 243.542 100.148C246.659 100.148 248.662 101.71 248.662 104.163H247.772C247.549 102.156 245.991 100.818 243.319 100.818C240.648 100.818 239.09 101.933 239.09 103.94C239.09 106.171 241.093 106.394 243.542 106.84C245.991 107.286 248.885 107.732 248.885 111.078C248.885 113.531 246.659 115.316 243.542 115.316C240.203 115.093 238.199 113.531 237.977 111.078Z" fill="black"/>
<path d="M267.807 107.955H254.45C254.673 111.747 257.344 114.424 260.906 114.424C263.355 114.424 265.581 113.085 266.694 110.855H267.584C266.249 113.754 263.8 115.316 260.906 115.316C256.899 115.316 253.782 111.97 253.782 107.732C253.782 103.494 256.899 100.148 260.906 100.148C265.136 100.148 268.03 103.494 268.03 107.509C267.807 107.732 267.807 107.732 267.807 107.955ZM254.45 107.063H267.139C266.917 103.494 264.245 101.041 260.906 101.041C257.344 101.041 254.673 103.494 254.45 107.063Z" fill="black"/>
<path d="M289.846 114.201V115.093H288.065C285.394 115.093 283.835 113.532 283.835 110.633V101.264H280.496V100.595H283.835V96.3574H284.726V100.595H290.069V101.264H284.726V110.409C284.726 112.64 286.061 113.978 288.288 113.978H289.846V114.201Z" fill="black"/>
<path d="M293.408 107.732C293.408 103.494 296.525 100.148 300.977 100.148C305.207 100.148 308.546 103.271 308.546 107.732C308.546 112.193 305.429 115.316 300.977 115.316C296.525 115.093 293.408 111.97 293.408 107.732ZM307.433 107.732C307.433 103.94 304.539 101.041 300.754 101.041C296.97 101.041 294.076 103.94 294.076 107.732C294.076 111.524 296.97 114.424 300.754 114.424C304.539 114.424 307.433 111.524 307.433 107.732Z" fill="black"/>
<path d="M335.037 100.371L327.691 115.985C326.355 118.884 325.019 119.777 322.793 119.777H321.68V118.884H322.793C324.797 118.884 325.687 118.215 327.023 115.539L327.913 113.754L321.235 100.148H322.125L328.359 112.862L334.147 100.148H335.037V100.371Z" fill="black"/>
<path d="M338.599 107.732C338.599 103.494 341.715 100.148 346.168 100.148C350.398 100.148 353.737 103.271 353.737 107.732C353.737 112.193 350.62 115.316 346.168 115.316C341.938 115.093 338.599 111.97 338.599 107.732ZM352.846 107.732C352.846 103.94 349.952 101.041 346.168 101.041C342.383 101.041 339.489 103.94 339.489 107.732C339.489 111.524 342.383 114.424 346.168 114.424C349.952 114.424 352.846 111.524 352.846 107.732Z" fill="black"/>
<path d="M359.525 108.849V100.373H360.415V108.626C360.415 112.195 362.419 114.202 365.536 114.202C368.652 114.202 370.656 111.972 370.656 108.626V100.373H371.546V108.849C371.546 112.641 369.097 115.094 365.536 115.094C361.751 115.094 359.525 112.641 359.525 108.849Z" fill="black"/>
<path d="M385.794 100.373V101.265H384.458C381.341 101.265 379.338 103.496 379.338 106.841V114.871H378.447V100.373H379.115L379.338 103.719C380.228 101.711 382.009 100.373 384.458 100.373H385.794Z" fill="black"/>
<path d="M411.617 106.395V114.87H410.726V106.395C410.726 103.049 408.946 100.818 405.829 100.818C402.935 100.818 400.264 103.272 400.264 106.395V114.87H399.373V95.2422H400.264V103.718C401.154 101.711 403.38 100.149 405.829 100.149C409.391 100.149 411.617 102.603 411.617 106.395Z" fill="black"/>
<path d="M431.652 107.955H418.296C418.518 111.747 421.19 114.424 424.751 114.424C427.2 114.424 429.426 113.085 430.539 110.855H431.43C430.094 113.754 427.645 115.316 424.751 115.316C420.744 115.316 417.628 111.97 417.628 107.732C417.628 103.494 420.744 100.148 424.751 100.148C428.981 100.148 431.875 103.494 431.875 107.509C431.652 107.732 431.652 107.732 431.652 107.955ZM418.296 107.063H430.985C430.762 103.494 428.091 101.041 424.751 101.041C421.19 101.041 418.518 103.494 418.296 107.063Z" fill="black"/>
<path d="M451.02 100.372V114.87H450.352V111.078C449.239 113.532 446.79 115.093 443.674 115.093C439.444 115.093 436.327 111.747 436.327 107.509C436.327 103.272 439.444 99.9258 443.674 99.9258C446.79 99.9258 449.017 101.487 450.352 103.941V100.149L451.02 100.372ZM450.13 107.732C450.13 103.941 447.458 101.041 443.674 101.041C439.889 101.041 437.218 103.941 437.218 107.732C437.218 111.524 440.112 114.424 443.674 114.424C447.458 114.424 450.13 111.524 450.13 107.732Z" fill="black"/>
<path d="M465.49 100.373V101.265H464.154C461.038 101.265 459.034 103.496 459.034 106.841V114.871H458.144V100.373H458.812L459.034 103.719C459.925 101.711 461.706 100.373 464.154 100.373H465.49Z" fill="black"/>
<path d="M477.734 114.201V115.093H475.953C473.282 115.093 471.723 113.532 471.723 110.633V101.264H468.384V100.595H471.723V96.3574H472.614V100.595H477.957V101.264H472.614V110.409C472.614 112.64 473.949 113.978 476.176 113.978H477.734V114.201Z" fill="black"/>
</g>
<defs>
<clipPath id="clip0_1887_19741">
<rect width="507.342" height="120" fill="white"/>
</clipPath>
</defs>
</svg>
