<?xml version="1.0" encoding="utf-8"?>
<!-- Generator: Adobe Illustrator 21.0.0, SVG Export Plug-In . SVG Version: 6.00 Build 0)  -->
<svg version="1.1" id="Слой_1" xmlns="http://www.w3.org/2000/svg" xmlns:xlink="http://www.w3.org/1999/xlink" x="0px" y="0px"
	 viewBox="0 0 227.9 53.9" style="enable-background:new 0 0 227.9 53.9;" xml:space="preserve">
<style type="text/css">
	.st0{fill:#8740CC;}
	.st1{fill:#BF00EF;}
	.st2{fill:#FFFFFF;}
	.st3{fill:none;stroke:#BF00EF;stroke-width:0;stroke-linecap:round;stroke-linejoin:round;}
</style>
<g>
	<g>
		<path class="st0" d="M55.7,23.3c-0.1,0.2-0.3,0.5-0.4,0.7C55.4,23.8,55.6,23.5,55.7,23.3z"/>
		<path class="st0" d="M56.2,22.2c-0.1,0.1-0.1,0.3-0.2,0.4C56.1,22.5,56.1,22.4,56.2,22.2z"/>
		<path class="st0" d="M56.6,21.1c0,0.1,0,0.1-0.1,0.2C56.6,21.3,56.6,21.2,56.6,21.1z"/>
		<path class="st0" d="M57,20C57,20,57,20,57,20C57,20,57,20,57,20z"/>
		<path class="st1" d="M56.6,21.3c-0.1,0.3-0.2,0.6-0.4,0.9C56.3,21.9,56.5,21.6,56.6,21.3z"/>
		<path class="st1" d="M57,20.1c-0.1,0.4-0.2,0.7-0.3,1.1C56.8,20.8,56.9,20.4,57,20.1z"/>
		<path class="st1" d="M56,22.7c-0.1,0.2-0.2,0.4-0.3,0.6C55.8,23.1,55.9,22.9,56,22.7z"/>
		<path class="st1" d="M55.3,24c0,0.1-0.1,0.1-0.1,0.2C55.2,24.1,55.3,24.1,55.3,24z"/>
		<g>
			<path class="st2" d="M30.2,28.6c-3.5-3.2-5.5-7.8-5.5-12.6c0-2.5,0.5-4.9,1.5-7.1c0.2-0.5,0.9-1.5,1.5-2.4
				c-1.3-1.7-2.9-3.1-4.8-4.1c-2-0.9-3.6-1.2-4.3-1.3c-1.2-0.2-3.5-0.6-6.4-0.2C5.3,2.4,0,8.6,0,16.1c0,3.7,1.3,7,3.4,9.7
				c0.4,0.4,0.8,0.9,1.2,1.3c0.3,0.3,0.6,0.6,0.9,0.9c6.3,6.5,9.6,9.8,11.6,11.6c2.9,2.6,7,6.4,11.6,11.3V51c0,0,0.1-0.1,0.1-0.1
				c0,0,0.1,0.1,0.1,0.1v-0.2c4.7-4.9,8.7-8.7,11.6-11.3c0.2-0.2,0.4-0.4,0.7-0.6L30.4,28.8L30.2,28.6z"/>
			<path class="st1" d="M45.2,0.9c-0.9-0.1-1.8-0.2-2.5-0.2c-1.7,0-3,0.2-3.8,0.4c-0.7,0.1-2.3,0.5-4.3,1.3
				c-1.7,0.9-3.2,2.1-4.4,3.5c-0.5,0.6-2.2,3-2.5,3.6c-0.9,2-1.4,4.2-1.4,6.5c0,4.5,1.9,8.6,5,11.4c0.1,0.1,0.1,0.1,0.2,0.2
				l10.8,10.1c2-2,5-5,9.7-9.8c0.1-0.1,0.1-0.1,0.2-0.2c0.2-0.2,0.4-0.4,0.6-0.7c0.4-0.4,0.7-0.7,1.1-1.1c0.4-0.5,0.8-1.1,1.2-1.7
				c0-0.1,0.1-0.1,0.1-0.2c0.1-0.2,0.3-0.5,0.4-0.7c0.1-0.2,0.2-0.4,0.3-0.6c0.1-0.1,0.1-0.3,0.2-0.4c0.1-0.3,0.3-0.6,0.4-0.9
				c0-0.1,0-0.1,0.1-0.2c0.1-0.4,0.2-0.7,0.3-1.1c0,0,0,0,0,0c0.3-1.3,0.5-2.6,0.5-4C57.5,8.6,52.2,2.4,45.2,0.9z M42.3,21.9
				c-3.2,0-5.9-2.6-5.9-5.9s2.6-5.9,5.9-5.9c3.2,0,5.9,2.6,5.9,5.9S45.5,21.9,42.3,21.9z"/>
			<path class="st3" d="M31.3,27.4c0.1,0.1,0.1,0.1,0.2,0.2"/>
		</g>
	</g>
	<g>
		<path class="st2" d="M82.7,8.2c-7.8,0-13.5,5.4-13.5,12.8c0,7.4,5.7,12.8,13.5,12.8S96.2,28.4,96.2,21
			C96.2,13.6,90.5,8.2,82.7,8.2z M82.7,27c-3.4,0-5.8-2.5-5.8-6s2.4-6,5.8-6c3.4,0,5.8,2.5,5.8,6C88.5,24.5,86.1,27,82.7,27z"/>
		<polygon class="st2" points="124.3,9 115.7,9 109.1,19.9 109.1,0 101.4,0 101.4,33 109.1,33 109.1,21.3 116,33 125.1,33 
			116.8,20.4 		"/>
		<path class="st2" d="M139.5,8.2c-7.8,0-13.5,5.4-13.5,12.8c0,7.4,5.7,12.8,13.5,12.8c7.8,0,13.5-5.4,13.5-12.8
			C153,13.6,147.3,8.2,139.5,8.2z M139.5,27c-3.4,0-5.8-2.5-5.8-6s2.4-6,5.8-6c3.4,0,5.8,2.5,5.8,6C145.3,24.5,142.9,27,139.5,27z"
			/>
		<path class="st2" d="M169.9,8.2c-7.8,0-13.5,5.4-13.5,12.8c0,7.4,5.7,12.8,13.5,12.8c7.8,0,13.5-5.4,13.5-12.8
			C183.4,13.6,177.7,8.2,169.9,8.2z M169.9,27c-3.4,0-5.8-2.5-5.8-6s2.4-6,5.8-6c3.4,0,5.8,2.5,5.8,6C175.7,24.5,173.3,27,169.9,27z
			"/>
		<rect x="188.3" class="st2" width="7.7" height="33"/>
		<path class="st2" d="M221.2,11.2l-0.4-0.4c-2-1.7-4.6-2.6-7.3-2.6c-7.4,0-12.6,5.2-12.6,12.8c0,7.4,5.3,12.9,12.6,12.9
			c2.7,0,5.2-0.9,7.2-2.5l0.5-0.4l0.8,2h5.9V9l-5.7,0L221.2,11.2z M214.6,27.1c-3.4,0-6-2.6-6-6.1c0-3.5,2.6-6.1,6-6.1
			c3.4,0,6,2.6,6,6.1C220.6,24.5,218,27.1,214.6,27.1z"/>
	</g>
</g>
<g>
	<path class="st2" d="M85.6,47.4c0-2.2,1.6-3.7,3.8-3.7c1.2,0,2.3,0.5,2.9,1.5l-0.7,0.5c-0.5-0.7-1.3-1.1-2.1-1.1
		c-1.6,0-2.8,1.1-2.8,2.9c0,1.7,1.2,2.9,2.8,2.9c0.9,0,1.6-0.3,2.1-1.1l0.7,0.5c-0.6,1-1.6,1.5-2.9,1.5
		C87.2,51.2,85.6,49.6,85.6,47.4z"/>
	<path class="st2" d="M94.2,40.7h1v10.4h-1V40.7z"/>
	<path class="st2" d="M97.2,47.4c0-2.2,1.6-3.7,3.8-3.7c2.2,0,3.7,1.6,3.7,3.7s-1.6,3.8-3.7,3.8C98.8,51.2,97.2,49.6,97.2,47.4z
		 M103.7,47.4c0-1.7-1.2-2.9-2.7-2.9c-1.6,0-2.7,1.1-2.7,2.9s1.2,2.9,2.7,2.9C102.5,50.3,103.7,49.2,103.7,47.4z"/>
	<path class="st2" d="M105.7,50.3l0.4-0.8c0.6,0.5,1.6,0.8,2.6,0.8c1.4,0,2-0.5,2-1.2c0-1.9-4.8-0.4-4.8-3.3c0-1.2,1-2.1,2.9-2.1
		c1,0,2,0.3,2.6,0.7l-0.4,0.8c-0.6-0.4-1.4-0.6-2.2-0.6c-1.3,0-1.9,0.5-1.9,1.2c0,2,4.8,0.5,4.8,3.3c0,1.3-1.1,2.1-3,2.1
		C107.5,51.2,106.3,50.8,105.7,50.3z"/>
	<path class="st2" d="M120,47.7h-6.2c0.1,1.5,1.3,2.6,2.9,2.6c0.9,0,1.7-0.3,2.3-1l0.6,0.6c-0.7,0.8-1.7,1.2-2.8,1.2
		c-2.3,0-3.9-1.6-3.9-3.8s1.5-3.7,3.6-3.7c2.1,0,3.6,1.5,3.6,3.7C120,47.5,120,47.6,120,47.7z M113.8,47h5.2
		c-0.1-1.4-1.2-2.5-2.6-2.5C115,44.5,114,45.5,113.8,47z"/>
	<path class="st2" d="M129.6,50.7c-0.4,0.4-1,0.5-1.6,0.5c-1.4,0-2.2-0.8-2.2-2.1v-4.5h-1.3v-0.8h1.3v-1.6h1v1.6h2.2v0.8h-2.2V49
		c0,0.9,0.4,1.3,1.3,1.3c0.4,0,0.8-0.1,1.1-0.4L129.6,50.7z"/>
	<path class="st2" d="M130.4,47.4c0-2.2,1.6-3.7,3.8-3.7c2.2,0,3.7,1.6,3.7,3.7s-1.6,3.8-3.7,3.8C132,51.2,130.4,49.6,130.4,47.4z
		 M136.9,47.4c0-1.7-1.2-2.9-2.7-2.9c-1.6,0-2.7,1.1-2.7,2.9s1.2,2.9,2.7,2.9C135.8,50.3,136.9,49.2,136.9,47.4z"/>
	<path class="st2" d="M149.8,43.7l-3.7,8.3c-0.6,1.4-1.4,1.9-2.5,1.9c-0.7,0-1.3-0.2-1.8-0.7l0.5-0.7c0.4,0.4,0.8,0.6,1.3,0.6
		c0.7,0,1.1-0.3,1.5-1.2l0.3-0.7l-3.3-7.4h1l2.8,6.3l2.8-6.3H149.8z"/>
	<path class="st2" d="M150.3,47.4c0-2.2,1.6-3.7,3.8-3.7c2.2,0,3.7,1.6,3.7,3.7s-1.6,3.8-3.7,3.8C151.9,51.2,150.3,49.6,150.3,47.4z
		 M156.8,47.4c0-1.7-1.2-2.9-2.7-2.9c-1.6,0-2.7,1.1-2.7,2.9s1.2,2.9,2.7,2.9C155.6,50.3,156.8,49.2,156.8,47.4z"/>
	<path class="st2" d="M166.5,43.7v7.4h-1v-1.3c-0.5,0.9-1.5,1.4-2.7,1.4c-1.9,0-3.1-1.1-3.1-3.2v-4.3h1v4.2c0,1.6,0.8,2.4,2.2,2.4
		c1.5,0,2.5-1,2.5-2.7v-3.9H166.5z"/>
	<path class="st2" d="M173,43.7v1c-0.1,0-0.2,0-0.2,0c-1.5,0-2.5,1-2.5,2.7v3.8h-1v-7.4h1v1.4C170.7,44.2,171.6,43.7,173,43.7z"/>
	<path class="st2" d="M185.3,46.8v4.3h-1v-4.2c0-1.6-0.8-2.4-2.2-2.4c-1.6,0-2.6,1-2.6,2.7v3.9h-1V40.7h1V45
		c0.5-0.9,1.5-1.3,2.8-1.3C184.1,43.7,185.3,44.7,185.3,46.8z"/>
	<path class="st2" d="M194.5,47.7h-6.2c0.1,1.5,1.3,2.6,2.9,2.6c0.9,0,1.7-0.3,2.3-1L194,50c-0.7,0.8-1.7,1.2-2.8,1.2
		c-2.3,0-3.9-1.6-3.9-3.8s1.5-3.7,3.6-3.7c2.1,0,3.6,1.5,3.6,3.7C194.5,47.5,194.5,47.6,194.5,47.7z M188.3,47h5.2
		c-0.1-1.4-1.2-2.5-2.6-2.5C189.5,44.5,188.5,45.5,188.3,47z"/>
	<path class="st2" d="M201.9,46.5v4.6h-1V50c-0.4,0.8-1.3,1.2-2.5,1.2c-1.7,0-2.7-0.9-2.7-2.1c0-1.1,0.7-2.1,2.8-2.1h2.3v-0.4
		c0-1.3-0.7-1.9-2.1-1.9c-1,0-1.9,0.3-2.5,0.9l-0.4-0.7c0.7-0.6,1.8-1,3-1C200.8,43.7,201.9,44.6,201.9,46.5z M200.9,48.9v-1.2h-2.3
		c-1.4,0-1.9,0.6-1.9,1.3c0,0.9,0.7,1.4,1.9,1.4C199.7,50.4,200.5,49.9,200.9,48.9z"/>
	<path class="st2" d="M208.3,43.7v1c-0.1,0-0.2,0-0.2,0c-1.5,0-2.5,1-2.5,2.7v3.8h-1v-7.4h1v1.4C206,44.2,207,43.7,208.3,43.7z"/>
	<path class="st2" d="M214.3,50.7c-0.4,0.4-1,0.5-1.6,0.5c-1.4,0-2.2-0.8-2.2-2.1v-4.5h-1.3v-0.8h1.3v-1.6h1v1.6h2.2v0.8h-2.2V49
		c0,0.9,0.4,1.3,1.3,1.3c0.4,0,0.8-0.1,1.1-0.4L214.3,50.7z"/>
</g>
</svg>
